<svg width="72" height="24" viewBox="0 0 72 24" fill="none" xmlns="http://www.w3.org/2000/svg">
<path d="M31.8223 19H29V8.12109L25.6309 9.16602V6.87109L31.5195 4.76172H31.8223V19Z" fill="#FF583E"/>
<g clip-path="url(#clip0_2_5)">
<path d="M15.8609 7.81166C15.7363 7.65217 15.5453 7.55895 15.3429 7.55895H2.83262L2.64666 5.48729C2.61625 5.1485 2.33231 4.88892 1.99219 4.88892H0.657105C0.294195 4.88892 0 5.18311 0 5.54602C0 5.90893 0.294195 6.20313 0.657105 6.20313H1.39143L2.11168 14.2273C2.11184 14.2367 2.11137 14.246 2.1119 14.2555C2.11337 14.2808 2.11666 14.3054 2.12085 14.3297L2.1472 14.6231C2.1477 14.6286 2.14826 14.6342 2.14892 14.6396C2.22877 15.3315 2.58233 15.9309 3.09359 16.3359C2.82868 16.6742 2.67016 17.0996 2.67016 17.5616C2.67016 18.6601 3.56385 19.5538 4.66231 19.5538C5.76081 19.5538 6.6545 18.6601 6.6545 17.5616C6.6545 17.3237 6.61241 17.0954 6.53556 16.8836H10.132C10.0551 17.0954 10.0131 17.3237 10.0131 17.5616C10.0131 18.6601 10.9067 19.5538 12.0052 19.5538C13.1037 19.5538 13.9974 18.6601 13.9974 17.5616C13.9974 16.4631 13.1037 15.5694 12.0052 15.5694H4.66676C4.16761 15.5694 3.73264 15.2683 3.54489 14.8295L14.0463 14.2124C14.333 14.1955 14.5756 13.9944 14.6452 13.7158L15.9804 8.37539C16.0294 8.17913 15.9854 7.97118 15.8609 7.81166Z" fill="#1D3130"/>
</g>
<defs>
<clipPath id="clip0_2_5">
<rect width="16" height="16" fill="white" transform="translate(0 4)"/>
</clipPath>
</defs>
</svg>
